<?xml version="1.0" encoding="UTF-8"?>
<svg width="151px" height="28px" viewBox="0 0 151 28" version="1.1" xmlns="http://www.w3.org/2000/svg" xmlns:xlink="http://www.w3.org/1999/xlink">
    <!-- Generator: Sketch 49.3 (51167) - http://www.bohemiancoding.com/sketch -->
    <title>Slice 1</title>
    <desc>Created with Sketch.</desc>
    <defs></defs>
    <g id="Page-1" stroke="none" stroke-width="1" fill="none" fill-rule="evenodd">
        <path d="M0.692,1.296 L6.344,1.296 L6.344,22.248 L18.872,22.248 L18.872,27 L0.692,27 L0.692,1.296 Z M22.04,1.296 L27.692,1.296 L27.692,27 L22.04,27 L22.04,1.296 Z M37.196,14.256 C37.196,15.3360054 37.3219987,16.3859949 37.574,17.406 C37.8260013,18.4260051 38.2279972,19.3439959 38.78,20.16 C39.3320028,20.9760041 40.0519956,21.6299975 40.94,22.122 C41.8280044,22.6140025 42.9079936,22.86 44.18,22.86 C45.4520064,22.86 46.5319956,22.6140025 47.42,22.122 C48.3080044,21.6299975 49.0279972,20.9760041 49.58,20.16 C50.1320028,19.3439959 50.5339987,18.4260051 50.786,17.406 C51.0380013,16.3859949 51.164,15.3360054 51.164,14.256 C51.164,13.1279944 51.0380013,12.0360053 50.786,10.98 C50.5339987,9.92399472 50.1320028,8.98200414 49.58,8.154 C49.0279972,7.32599586 48.3080044,6.66600246 47.42,6.174 C46.5319956,5.68199754 45.4520064,5.436 44.18,5.436 C42.9079936,5.436 41.8280044,5.68199754 40.94,6.174 C40.0519956,6.66600246 39.3320028,7.32599586 38.78,8.154 C38.2279972,8.98200414 37.8260013,9.92399472 37.574,10.98 C37.3219987,12.0360053 37.196,13.1279944 37.196,14.256 Z M31.544,14.256 C31.544,12.3359904 31.8319971,10.5540082 32.408,8.91 C32.9840029,7.26599178 33.8119946,5.83200612 34.892,4.608 C35.9720054,3.38399388 37.2979921,2.42400348 38.87,1.728 C40.4420079,1.03199652 42.2119902,0.684 44.18,0.684 C46.17201,0.684 47.9479922,1.03199652 49.508,1.728 C51.0680078,2.42400348 52.3879946,3.38399388 53.468,4.608 C54.5480054,5.83200612 55.3759971,7.26599178 55.952,8.91 C56.5280029,10.5540082 56.816,12.3359904 56.816,14.256 C56.816,16.1280094 56.5280029,17.8739919 55.952,19.494 C55.3759971,21.1140081 54.5480054,22.523994 53.468,23.724 C52.3879946,24.924006 51.0680078,25.8659966 49.508,26.55 C47.9479922,27.2340034 46.17201,27.576 44.18,27.576 C42.2119902,27.576 40.4420079,27.2340034 38.87,26.55 C37.2979921,25.8659966 35.9720054,24.924006 34.892,23.724 C33.8119946,22.523994 32.9840029,21.1140081 32.408,19.494 C31.8319971,17.8739919 31.544,16.1280094 31.544,14.256 Z M66.32,12.924 L72.512,12.924 C73.8080065,12.924 74.7799968,12.6360029 75.428,12.06 C76.0760032,11.4839971 76.4,10.5480065 76.4,9.252 C76.4,8.00399376 76.0760032,7.09800282 75.428,6.534 C74.7799968,5.96999718 73.8080065,5.688 72.512,5.688 L66.32,5.688 L66.32,12.924 Z M60.668,1.296 L74.528,1.296 C75.6800058,1.296 76.7179954,1.48199814 77.642,1.854 C78.5660046,2.22600186 79.3579967,2.73599676 80.018,3.384 C80.6780033,4.03200324 81.1819983,4.78199574 81.53,5.634 C81.8780017,6.48600426 82.052,7.40399508 82.052,8.388 C82.052,9.90000756 81.7340032,11.2079945 81.098,12.312 C80.4619968,13.4160055 79.4240072,14.2559971 77.984,14.832 L77.984,14.904 C78.6800035,15.096001 79.2559977,15.389998 79.712,15.786 C80.1680023,16.182002 80.5399986,16.6499973 80.828,17.19 C81.1160014,17.7300027 81.3259993,18.3239968 81.458,18.972 C81.5900007,19.6200032 81.6799998,20.2679968 81.728,20.916 C81.7520001,21.324002 81.7759999,21.8039972 81.8,22.356 C81.8240001,22.9080028 81.8659997,23.4719971 81.926,24.048 C81.9860003,24.6240029 82.0819993,25.1699974 82.214,25.686 C82.3460007,26.2020026 82.5439987,26.6399982 82.808,27 L77.156,27 C76.8439984,26.1839959 76.6520004,25.2120056 76.58,24.084 C76.5079996,22.9559944 76.4000007,21.8760052 76.256,20.844 C76.063999,19.4999933 75.6560031,18.5160031 75.032,17.892 C74.4079969,17.2679969 73.3880071,16.956 71.972,16.956 L66.32,16.956 L66.32,27 L60.668,27 L60.668,1.296 Z M103.148,17.064 L109.808,17.064 L106.568,7.632 L106.496,7.632 L103.148,17.064 Z M103.688,1.296 L109.484,1.296 L119.096,27 L113.228,27 L111.284,21.276 L101.672,21.276 L99.656,27 L93.968,27 L103.688,1.296 Z M119.672,22.536 L133.46,6.048 L120.752,6.048 L120.752,1.296 L140.984,1.296 L140.984,5.76 L127.196,22.248 L141.344,22.248 L141.344,27 L119.672,27 L119.672,22.536 Z M144.656,1.296 L150.308,1.296 L150.308,27 L144.656,27 L144.656,1.296 Z" id="LIOR-AZI" fill="#FFFFFF"></path>
    </g>
</svg>