<?xml version="1.0" ?><svg id="Layer_1" style="enable-background:new 0 0 376 368;" version="1.1" viewBox="0 0 376 368" xml:space="preserve" xmlns="http://www.w3.org/2000/svg" xmlns:xlink="http://www.w3.org/1999/xlink"><style type="text/css">
	.st0{fill:#235EE1;}
</style><g><path class="st0" d="M268.5,158.5c0.7-2.2,1.3-4.1,1.8-6c6-21.6,12.1-43.2,20.4-64.1c3.7-9.4,10-14.7,19.8-15.8   c6.5-0.7,13.4-1.3,17.8,4.9c2.9,3.9,6.2,6.2,10.9,7c2.2,0.3,4.4,0.9,6.5,1.7c2.9,1.1,4-0.1,4.8-2.8c2.5-8.8,5.1-17.5,7.7-26.2   c2.9-9.9,2.9-9.8-6.7-13.2c-4-1.4-7.6-2-11.8-0.2c-6.8,2.8-13,1.7-18.5-3.8c-5.8-5.8-12.4-10.3-20.3-13.1   c-22.7-7.9-46-11.4-69.9-7.6c-11.5,1.8-22.7,4.9-32.4,11.8c-1.4,1-2.5,2.2-3.8,3.4c13.2-1.1,25.9-1.3,38.6,0.4   c8.6,1.1,16.3,4,22,11.3c6,7.7,7.4,16.8,8.2,26c1.1,12.9-1.3,25.3-4.9,37.6c-3.8,13-7.4,26.2-11.1,39.2c-0.5,1.7-0.9,3.2,1.4,3.8   C255.4,154.7,261.7,156.5,268.5,158.5z"/><path class="st0" d="M207,355.1c6.3,0.5,11.4-2.4,14.6-8c1.9-3.3,3.4-7,4.3-10.7c9.6-39.7,19.1-79.4,28.6-119.2   c3.9-16.5,7.6-33,11.6-49.5c0.8-3.2,0-4.5-3.1-5.2c-4.2-1-8.4-2.2-12.6-3.5c-7.7-2.3-6.2-2-8.5,4.4C223,217.3,204,271.1,185.1,325   c-0.8,2.2-1.5,4.6-1.6,6.9C182.9,345.5,192.5,355,207,355.1z"/><path class="st0" d="M13,115.2c0.4,3.3,0.8,6.1,1.2,8.8c2.9,19.2,5.9,38.4,8.7,57.6c2.9,19.3,5.7,38.7,8.5,58   c2.9,19.5,5.8,38.9,8.8,58.4c1.8,12.3,3.7,24.6,5.5,37c0.4,2.6,1.3,3.8,4.4,3.3c18.2-3,36.4-5.9,54.6-8.7c26-4.1,51.9-8,77.9-12.1   c1-0.2,1.8-1.4,2.7-2.2c-1.1-0.6-2.4-1.7-3.4-1.6c-14.2,2-28.3,4.2-42.5,6.4c-28.7,4.5-57.4,8.9-86,13.5c-3,0.5-4-0.2-4.4-3.1   c-1.7-12.5-3.5-24.9-5.4-37.3c-4.1-27.6-8.4-55.2-12.5-82.7c-4.5-30-8.9-60.1-13.5-90.2c-0.5-3.3,0.6-4.8,3.9-5.2   c5.8-0.8,11.6-1.8,17.3-2.7c23.6-3.8,47.2-7.7,70.8-11.5c20.6-3.4,41.3-6.8,61.9-10.2c19.2-3.1,38.3-6.2,57.5-9.4   c9-1.5,17.9-2.9,26.9-4.6c1.1-0.2,1.9-1.8,2.8-2.7c-1.2-0.5-2.4-1-3.6-1.4c-0.3-0.1-0.7,0.1-1.1,0.2c-11.2,1.9-22.4,3.8-33.5,5.6   c-23.6,3.9-47.2,7.7-70.8,11.6c-22,3.6-44,7.3-66,10.9c-22.6,3.7-45.2,7.5-67.8,11.1C13.4,112.4,12.1,113.1,13,115.2z"/><path class="st0" d="M298,82c-0.6,0-1.2,0-1.8-0.1c-0.3,2.5-1.2,5.1-0.9,7.6c1.1,8.1,2.7,16.2,4,24.3c3.6,21.7,7.2,43.5,10.8,65.2   c3.6,21.7,7.2,43.5,10.9,65.2c2.3,13.9,4.7,27.8,7,41.6c0.4,2.1,0,3.6-2.6,4c-19.2,3-38.4,6-57.6,9c-9.1,1.4-18.2,2.9-27.3,4.5   c-0.8,0.1-1.5,1.4-2.2,2.2c1,0.5,1.9,1.4,2.8,1.4c2.9-0.2,5.7-0.7,8.5-1.1c21.3-3.4,42.6-6.8,63.8-10.2c6.4-1,12.7-2.1,19.6-3.2   C321.4,222.1,309.7,152.1,298,82z"/><path class="st0" d="M222.1,208c2.3-2.3,1.9-4,0.3-5.9c-6.3-7.5-12.4-15-18.7-22.5c-17.5-21.1-35.1-42.3-52.6-63.5   c-1.4-1.7-2.6-4-3-6.2c-0.7-4.3,2.2-8.2,6.4-9.9c4.5-1.7,8.4-0.5,12.2,4c17.2,20.6,34.5,41.2,51.7,61.8c4.1,4.9,8.3,9.8,12.6,14.9   c2.2-2.3,1.9-4,0.3-5.9c-6.9-8.2-13.8-16.5-20.7-24.7c-13.9-16.6-27.7-33.2-41.7-49.6c-5.6-6.5-14.1-6.9-20.3-1.5   c-6.1,5.3-6.4,12.8-0.7,19.6c21.6,26.1,43.2,52.1,64.8,78.2C215.8,200.6,218.9,204.2,222.1,208z"/><path class="st0" d="M153.1,165.9c-0.7-0.5-1.5-1.2-2.4-1.6c-6.9-2.6-13.8-5-20.7-7.6c-2.2-0.8-3.2,0-4,1.9   c-12.6,31-25.2,61.9-37.8,92.9c-1,2.3-0.3,3.4,1.8,4.2c6.5,2.6,13,5.1,19.4,8c3.5,1.6,4.9,0.8,6.2-2.7c12-30.7,24.2-61.3,36.3-91.9   C152.2,168.4,152.5,167.4,153.1,165.9z"/><path class="st0" d="M219,208.8c-5-6.3-9.6-11.5-13.4-17.1c-3.4-5.2-7.2-7.9-13.5-5.3c-1.5,0.6-3.2,0.6-4.8,0.8   c-13.4,2.3-26.7,4.6-40.1,6.9c-2.1,0.4-3.9,0.9-4.8,3.4c-2.6,7.4-5.4,14.7-8.1,22.1c-0.3,0.8-0.3,1.8-0.5,3.2   C162.3,218.2,190.1,213.6,219,208.8z"/><path class="st0" d="M106.6,199.9c-16.4,2.7-32,5.2-48.1,7.8c1.1,7.5,2.3,14.6,3.1,21.8c0.4,3.1,1.7,3.5,4.5,3.1   c8.2-1.3,16.5-2.4,24.8-3.4c2.5-0.3,4.1-1.3,5.1-3.6c3-7.2,6.2-14.4,9.3-21.6C105.8,202.8,106,201.8,106.6,199.9z"/><path class="st0" d="M282.4,262.3c-9.8-6-19.5-11.9-30.1-18.3c0.4,1.9,0.2,4.1,1.2,5.2c1.9,2.1,4.2,3.9,6.7,5.2   c3.4,1.9,7,3.2,10.5,4.9c5.1,2.5,8.8,6.1,8.8,12.3c0,1,0.5,2,0.9,3.1c0.6-0.3,0.8-0.4,1-0.5c0.3-0.3,0.5-0.6,0.7-0.9   c6-8.9,6.4-18.7,3.8-28.7c-2.9-11.2-8.1-20.9-19-26.5c-3-1.5-4.9-0.2-7.1,1.3c-2.3,1.6-3.6,3.5-3,6.9c1.6-1,3-1.7,4-2.7   c2.5-2.6,4.8-2,7.6-0.2C279.4,231.1,286.3,250.5,282.4,262.3z"/><path class="st0" d="M81.3,304.2c0.4,0.2,0.8,0.4,1.2,0.5c9.9-12.4,19.9-24.8,30-37.5c-1.5-0.8-2.4-1.4-3.4-1.8   c-6.4-2.6-12.8-5-19.1-7.7c-3-1.3-3.9-0.4-4.1,2.7c-0.8,8.4-1.8,16.8-2.7,25.3C82.5,291.9,81.9,298.1,81.3,304.2z"/><path class="st0" d="M145.8,131.8c-5.8,0.6-9.6,3-11.8,8.1c-1.5,3.7-2.9,7.4-4.6,11c-1,2.1-0.7,3.4,1.7,4.2   c6.7,2.3,13.4,4.8,20,7.4c2.4,0.9,3.4,0.1,4.3-2c1.5-3.8,3.2-7.6,4.8-11.4c2.1-5.1,1.2-9.4-3.4-12.4   C153.5,134.6,149.5,133.4,145.8,131.8z"/><path class="st0" d="M263.1,200.8c8.4-1.1,16.7-2.2,24.9-3.5c0.7-0.1,1.6-1.9,1.5-2.7c-1-6.6-2.2-13.3-3.6-19.8   c-0.2-1-1.9-2.4-2.9-2.4c-4.2,0.3-8.4,0.9-12.6,1.6c-2.1,0.3-3.6,1.3-2.4,4.3c3.8-0.5,7.7-1.1,11.6-1.4c0.9-0.1,2.6,0.7,2.7,1.3   c1.1,5,1.9,10.2,2.9,15.5c-6.5,0.9-12.6,1.7-18.6,2.5C264.4,196.5,262.4,197,263.1,200.8z"/><path class="st0" d="M268.5,158.5c-6.7-2-13.1-3.8-19.4-5.6c-2.3-0.7-1.9-2.1-1.4-3.8c3.7-13.1,7.3-26.2,11.1-39.2   c3.6-12.3,6-24.8,4.9-37.6c-0.8-9.2-2.1-18.2-8.2-26c-5.7-7.3-13.4-10.2-22-11.3c-12.7-1.7-25.3-1.5-38.6-0.4   c1.3-1.1,2.4-2.4,3.8-3.4c9.7-6.9,20.9-10,32.4-11.8c24-3.8,47.2-0.2,69.9,7.6c7.9,2.7,14.5,7.3,20.3,13.1   c5.5,5.5,11.7,6.6,18.5,3.8c4.2-1.8,7.8-1.2,11.8,0.2c9.6,3.4,9.6,3.3,6.7,13.2c-2.6,8.7-5.2,17.4-7.7,26.2   c-0.8,2.7-1.9,3.8-4.8,2.8c-2.1-0.8-4.3-1.4-6.5-1.7c-4.7-0.7-8.1-3-10.9-7c-4.5-6.1-11.3-5.6-17.8-4.9   c-9.8,1.1-16.1,6.4-19.8,15.8c-8.3,20.9-14.4,42.5-20.4,64.1C269.8,154.4,269.2,156.2,268.5,158.5z"/><path class="st0" d="M207,355.1c-14.5-0.1-24-9.5-23.5-23.2c0.1-2.3,0.8-4.7,1.6-6.9C204,271.1,223,217.3,242,163.5   c2.2-6.4,0.8-6.6,8.5-4.4c4.2,1.2,8.4,2.5,12.6,3.5c3.1,0.7,3.9,2,3.1,5.2c-4,16.5-7.7,33-11.6,49.5c-9.5,39.7-19,79.5-28.6,119.2   c-0.9,3.7-2.4,7.4-4.3,10.7C218.4,352.7,213.3,355.6,207,355.1z"/><path class="st0" d="M13,115.2c-0.9-2.1,0.4-2.8,3-3.2c22.6-3.6,45.2-7.4,67.8-11.1c22-3.6,44-7.3,66-10.9   c23.6-3.9,47.2-7.7,70.8-11.6c11.2-1.8,22.4-3.7,33.5-5.6c0.4-0.1,0.8-0.3,1.1-0.2c1.2,0.4,2.4,0.9,3.6,1.4   c-0.9,0.9-1.7,2.5-2.8,2.7c-8.9,1.7-17.9,3.1-26.9,4.6c-19.2,3.1-38.3,6.2-57.5,9.4c-20.6,3.4-41.3,6.8-61.9,10.2   c-23.6,3.9-47.2,7.7-70.8,11.5c-5.8,0.9-11.5,2-17.3,2.7c-3.3,0.4-4.4,1.9-3.9,5.2c4.6,30,9,60.1,13.5,90.2   c4.1,27.6,8.4,55.2,12.5,82.7c1.9,12.4,3.7,24.9,5.4,37.3c0.4,2.9,1.3,3.6,4.4,3.1c28.6-4.6,57.3-9,86-13.5   c14.2-2.2,28.3-4.4,42.5-6.4c1-0.1,2.3,1,3.4,1.6c-0.9,0.8-1.7,2-2.7,2.2c-25.9,4.1-51.9,8.1-77.9,12.1   c-18.2,2.8-36.4,5.7-54.6,8.7c-3.1,0.5-4-0.7-4.4-3.3c-1.8-12.3-3.6-24.6-5.5-37c-2.9-19.5-5.9-38.9-8.8-58.4   c-2.9-19.3-5.7-38.7-8.5-58c-2.9-19.2-5.8-38.4-8.7-57.6C13.8,121.3,13.4,118.6,13,115.2z"/><path class="st0" d="M298,82c11.7,70,23.4,140,35.2,210.6c-6.9,1.1-13.2,2.2-19.6,3.2c-21.3,3.4-42.5,6.8-63.8,10.2   c-2.8,0.4-5.7,0.9-8.5,1.1c-0.9,0.1-1.9-0.9-2.8-1.4c0.7-0.8,1.4-2,2.2-2.2c9.1-1.6,18.2-3.1,27.3-4.5c19.2-3,38.4-6.1,57.6-9   c2.6-0.4,2.9-1.9,2.6-4c-2.3-13.9-4.7-27.7-7-41.6c-3.6-21.7-7.2-43.5-10.9-65.2c-3.6-21.7-7.2-43.5-10.8-65.2   c-1.4-8.1-2.9-16.2-4-24.3c-0.3-2.4,0.6-5,0.9-7.6C296.9,82,297.4,82,298,82z"/><path class="st0" d="M222.1,208c-3.2-3.8-6.3-7.4-9.4-11.2c-21.6-26.1-43.2-52.1-64.8-78.2c-5.7-6.8-5.4-14.2,0.7-19.6   c6.3-5.5,14.8-5.1,20.3,1.5c14,16.4,27.8,33.1,41.7,49.6c6.9,8.2,13.7,16.5,20.7,24.7c1.6,1.9,2,3.6-0.3,5.9   c-4.3-5.1-8.5-10-12.6-14.9c-17.2-20.6-34.5-41.2-51.7-61.8c-3.8-4.5-7.7-5.8-12.2-4c-4.3,1.7-7.1,5.6-6.4,9.9   c0.3,2.2,1.5,4.5,3,6.2c17.5,21.2,35,42.3,52.6,63.5c6.2,7.5,12.4,15,18.7,22.5C224,204,224.5,205.7,222.1,208z"/><path class="st0" d="M153.1,165.9c-0.5,1.5-0.8,2.4-1.2,3.4c-12.1,30.6-24.3,61.2-36.3,91.9c-1.4,3.5-2.7,4.3-6.2,2.7   c-6.3-2.9-12.9-5.4-19.4-8c-2.2-0.9-2.8-1.9-1.8-4.2c12.7-30.9,25.3-61.9,37.8-92.9c0.8-2,1.8-2.8,4-1.9c6.9,2.6,13.8,5,20.7,7.6   C151.6,164.7,152.3,165.4,153.1,165.9z M129.5,160.9c-1.7,4.3-3.3,8.1-4.8,11.9c-10.3,25.3-20.6,50.6-31,75.9   c-1.2,3-0.6,4.2,2.2,5.2c4,1.4,8,3,11.8,4.8c3,1.5,4.2,0.9,5.4-2.2c7.8-20,15.7-39.9,23.7-59.9c3.8-9.5,7.5-19,11.4-28.9   C141.9,165.5,136,163.3,129.5,160.9z"/><path class="st0" d="M219,208.8c-28.9,4.8-56.7,9.3-85.1,14c0.2-1.4,0.2-2.3,0.5-3.2c2.7-7.4,5.6-14.7,8.1-22.1   c0.9-2.5,2.7-3.1,4.8-3.4c13.4-2.3,26.7-4.6,40.1-6.9c1.6-0.3,3.3-0.2,4.8-0.8c6.3-2.5,10,0.2,13.5,5.3   C209.4,197.4,214,202.5,219,208.8z M139.4,217.9c24.4-4,48.1-8,72.3-12c-4.3-5.4-8-10.2-11.9-14.9c-0.7-0.8-2.3-1.2-3.5-1.1   c-3.5,0.4-6.9,1-10.3,1.6c-11.9,2-23.8,4-35.6,6.2c-1.5,0.3-3.7,1.2-4.2,2.4C143.7,205.7,141.7,211.5,139.4,217.9z"/><path class="st0" d="M106.6,199.9c-0.6,1.9-0.9,2.9-1.3,3.9c-3.1,7.2-6.3,14.4-9.3,21.6c-1,2.4-2.5,3.3-5.1,3.6   c-8.3,1-16.5,2.1-24.8,3.4c-2.8,0.4-4.1,0-4.5-3.1c-0.9-7.1-2-14.2-3.1-21.8C74.6,205.1,90.2,202.6,106.6,199.9z M100.4,205   c-12,1.9-23.1,3.6-34,5.5c-1.1,0.2-2.9,2-2.9,2.9c0.3,4.3,1.1,8.6,2,12.9c0.2,0.8,1.9,1.9,2.7,1.8c6.8-0.8,13.6-1.7,20.3-2.8   c1.3-0.2,3.2-0.9,3.7-1.9C95.1,217.6,97.5,211.6,100.4,205z"/><path class="st0" d="M282.4,262.3c3.9-11.8-3-31.2-14-38.7c-2.7-1.9-5-2.4-7.6,0.2c-1,1-2.4,1.6-4,2.7c-0.6-3.5,0.7-5.3,3-6.9   c2.2-1.6,4.1-2.8,7.1-1.3c10.9,5.6,16.1,15.3,19,26.5c2.6,10,2.2,19.8-3.8,28.7c-0.2,0.3-0.4,0.6-0.7,0.9c-0.2,0.2-0.4,0.2-1,0.5   c-0.3-1.1-0.9-2.1-0.9-3.1c0-6.2-3.7-9.8-8.8-12.3c-3.5-1.7-7.2-3-10.5-4.9c-2.5-1.4-4.9-3.1-6.7-5.2c-1-1.1-0.8-3.3-1.2-5.2   C262.9,250.4,272.6,256.3,282.4,262.3z"/><path class="st0" d="M81.3,304.2c0.6-6.2,1.1-12.3,1.8-18.5c0.9-8.4,2-16.8,2.7-25.3c0.3-3.1,1.1-4,4.1-2.7   c6.3,2.7,12.7,5.1,19.1,7.7c1,0.4,1.9,1,3.4,1.8c-10.2,12.7-20.1,25.1-30,37.5C82.1,304.6,81.7,304.4,81.3,304.2z M86.4,292.6   c0.3,0.1,0.6,0.1,0.8,0.2c6.3-8,12.5-15.9,19-24.2c-5.9-2.3-11-4.3-16.5-6.5C88.6,272.7,87.5,282.7,86.4,292.6z"/><path class="st0" d="M145.8,131.8c3.7,1.6,7.7,2.8,11,5c4.6,3,5.5,7.3,3.4,12.4c-1.6,3.8-3.3,7.5-4.8,11.4c-0.8,2.1-1.9,2.9-4.3,2   c-6.6-2.6-13.3-5-20-7.4c-2.4-0.8-2.6-2.1-1.7-4.2c1.6-3.6,3-7.4,4.6-11C136.2,134.8,139.9,132.4,145.8,131.8z M133.6,151.7   c5.8,2.2,11.3,4.3,16.7,6.1c0.6,0.2,2-0.7,2.4-1.5c1.4-2.9,2.5-5.9,3.9-8.9c1.3-2.8,0.7-5.5-1.7-6.9c-2.8-1.7-5.9-2.9-9.1-3.7   c-3.5-0.8-6.4,0.8-7.8,4.2C136.5,144.4,135.2,147.7,133.6,151.7z"/><path class="st0" d="M263.1,200.8c-0.8-3.8,1.3-4.3,3.5-4.6c6-0.8,12-1.6,18.6-2.5c-1-5.3-1.8-10.4-2.9-15.5   c-0.1-0.6-1.8-1.4-2.7-1.3c-3.9,0.3-7.8,0.9-11.6,1.4c-1.1-3.1,0.4-4,2.4-4.3c4.2-0.6,8.4-1.3,12.6-1.6c1-0.1,2.7,1.4,2.9,2.4   c1.4,6.6,2.6,13.2,3.6,19.8c0.1,0.8-0.9,2.6-1.5,2.7C279.8,198.6,271.6,199.6,263.1,200.8z"/><path class="st0" d="M129.5,160.9c6.5,2.4,12.4,4.5,18.7,6.8c-3.9,9.9-7.7,19.4-11.4,28.9c-7.9,20-15.9,39.9-23.7,59.9   c-1.2,3.1-2.5,3.7-5.4,2.2c-3.8-1.9-7.8-3.4-11.8-4.8c-2.8-1-3.4-2.2-2.2-5.2c10.4-25.3,20.7-50.6,31-75.9   C126.2,169,127.7,165.2,129.5,160.9z"/><path class="st0" d="M139.4,217.9c2.4-6.4,4.3-12.1,6.7-17.7c0.5-1.2,2.7-2.1,4.2-2.4c11.9-2.2,23.8-4.2,35.6-6.2   c3.4-0.6,6.9-1.3,10.3-1.6c1.1-0.1,2.8,0.3,3.5,1.1c3.9,4.7,7.7,9.5,11.9,14.9C187.5,209.9,163.8,213.8,139.4,217.9z"/><path class="st0" d="M100.4,205c-2.9,6.6-5.3,12.6-8.2,18.3c-0.5,1-2.4,1.7-3.7,1.9c-6.7,1.1-13.5,2-20.3,2.8   c-0.9,0.1-2.6-1-2.7-1.8c-0.9-4.2-1.7-8.5-2-12.9c-0.1-0.9,1.7-2.7,2.9-2.9C77.3,208.6,88.4,206.9,100.4,205z"/><path class="st0" d="M86.4,292.6c1.1-10,2.2-19.9,3.4-30.5c5.4,2.1,10.6,4.2,16.5,6.5c-6.5,8.3-12.8,16.2-19,24.2   C87,292.8,86.7,292.7,86.4,292.6z"/><path class="st0" d="M133.6,151.7c1.6-4,2.9-7.3,4.4-10.6c1.5-3.4,4.3-5,7.8-4.2c3.2,0.7,6.3,2,9.1,3.7c2.4,1.5,3,4.1,1.7,6.9   c-1.3,2.9-2.5,6-3.9,8.9c-0.4,0.7-1.8,1.7-2.4,1.5C144.8,156,139.4,153.9,133.6,151.7z"/></g></svg>